<?xml version="1.0" standalone="no"?>
<!DOCTYPE svg PUBLIC "-//W3C//DTD SVG 20010904//EN"
 "http://www.w3.org/TR/2001/REC-SVG-20010904/DTD/svg10.dtd">
<svg version="1.0" xmlns="http://www.w3.org/2000/svg"
 width="375.000000pt" height="456.000000pt" viewBox="0 0 375.000000 456.000000"
 preserveAspectRatio="xMidYMid meet">

<g transform="translate(0.000000,456.000000) scale(0.100000,-0.100000)"
fill="#000000" stroke="none">
<path d="M1765 4451 c-220 -141 -455 -249 -755 -348 -254 -84 -406 -119 -670
-152 -41 -6 -90 -13 -107 -17 l-33 -6 -1 -72 c-1 -39 -4 -118 -7 -176 -11
-188 -6 -1210 6 -1405 14 -228 36 -359 88 -525 14 -47 28 -95 31 -108 3 -12 9
-25 14 -28 5 -3 9 -12 9 -20 0 -21 111 -250 153 -316 21 -31 37 -60 37 -63 0
-3 39 -58 88 -122 48 -64 96 -128 106 -142 67 -89 400 -401 531 -497 22 -16
45 -34 52 -40 6 -6 35 -26 65 -45 29 -18 55 -36 58 -39 10 -10 115 -77 150
-95 19 -10 37 -21 40 -24 3 -3 14 -11 25 -17 166 -89 217 -114 240 -114 52 0
357 174 565 323 132 95 186 139 314 257 100 92 178 172 246 250 36 41 68 77
71 80 31 27 199 271 199 289 0 5 4 11 8 13 7 2 109 205 143 283 17 40 78 231
93 295 8 36 25 119 36 185 19 114 20 164 20 997 l0 877 -42 6 c-24 3 -83 10
-133 15 -138 14 -235 30 -400 66 -152 33 -404 112 -559 177 -170 70 -397 186
-456 233 -36 29 -111 64 -137 64 -15 0 -55 -17 -88 -39z m1472 -1068 c14 -10
39 -35 54 -57 l29 -39 0 -842 c0 -463 -3 -856 -6 -872 -7 -34 -36 -71 -77 -98
-27 -17 -84 -19 -1160 -23 -804 -3 -1144 -1 -1172 7 -23 6 -56 26 -75 46 l-35
36 0 707 0 707 228 3 227 2 0 208 c0 148 3 211 12 220 9 9 241 12 980 12 897
0 971 -1 995 -17z"/>
<path d="M1396 3108 c-13 -18 -16 -52 -16 -164 0 -183 9 -174 -178 -174 -124
0 -142 -2 -151 -17 -9 -18 -5 -879 5 -894 2 -4 59 49 127 119 269 280 542 552
559 558 34 11 58 -10 348 -312 63 -66 137 -143 163 -172 27 -29 53 -52 57 -52
5 0 53 44 107 99 104 103 136 121 186 102 26 -10 197 -169 354 -329 40 -41 77
-71 83 -67 16 10 14 1297 -2 1313 -9 9 -205 12 -819 12 l-808 0 -15 -22z
m1282 -203 c82 -43 122 -109 122 -201 0 -79 -22 -127 -81 -177 -76 -66 -208
-71 -286 -11 -56 43 -86 106 -86 183 0 114 60 194 168 222 40 11 130 2 163
-16z"/>
</g>
</svg>
